<?xml version="1.0" encoding="utf-8" standalone="no"?>
<!DOCTYPE svg PUBLIC "-//W3C//DTD SVG 1.1//EN"
  "http://www.w3.org/Graphics/SVG/1.1/DTD/svg11.dtd">
<!-- Created with matplotlib (http://matplotlib.org/) -->
<svg height="144pt" version="1.1" viewBox="0 0 144 144" width="144pt" xmlns="http://www.w3.org/2000/svg" xmlns:xlink="http://www.w3.org/1999/xlink">
 <defs>
  <style type="text/css">
*{stroke-linecap:butt;stroke-linejoin:round;stroke-miterlimit:100000;}
  </style>
 </defs>
 <g id="figure_1">
  <g id="patch_1">
   <path d="M 0 144 
L 144 144 
L 144 0 
L 0 0 
z
" style="fill:#ffffff;"/>
  </g>
  <g id="axes_1">
   <g id="patch_2">
    <path d="M 18 126 
L 129.6 126 
L 129.6 14.4 
L 18 14.4 
z
" style="fill:#ffffff;"/>
   </g>
   <g id="line2d_1">
    <path clip-path="url(#p5b377fbcc8)" d="M 22.748936 121.251064 
L 33.302128 110.697872 
L 43.855319 100.144681 
L 54.408511 89.591489 
L 64.961702 79.038298 
L 75.514894 68.485106 
L 86.068085 57.931915 
L 96.621277 47.378723 
L 107.174468 36.825532 
L 117.72766 26.27234 
" style="fill:none;stroke:#808080;stroke-linecap:square;"/>
   </g>
   <g id="line2d_2">
    <defs>
     <path d="M 0 1.5 
C 0.397805 1.5 0.77937 1.341951 1.06066 1.06066 
C 1.341951 0.77937 1.5 0.397805 1.5 0 
C 1.5 -0.397805 1.341951 -0.77937 1.06066 -1.06066 
C 0.77937 -1.341951 0.397805 -1.5 0 -1.5 
C -0.397805 -1.5 -0.77937 -1.341951 -1.06066 -1.06066 
C -1.341951 -0.77937 -1.5 -0.397805 -1.5 0 
C -1.5 0.397805 -1.341951 0.77937 -1.06066 1.06066 
C -0.77937 1.341951 -0.397805 1.5 0 1.5 
z
" id="m0fa555e06f" style="stroke:#000000;stroke-width:0.5;"/>
    </defs>
    <g clip-path="url(#p5b377fbcc8)">
     <use style="stroke:#000000;stroke-width:0.5;" x="99.7930053191" xlink:href="#m0fa555e06f" y="26.2723404255"/>
     <use style="stroke:#000000;stroke-width:0.5;" x="97.7005053191" xlink:href="#m0fa555e06f" y="55.1221276596"/>
     <use style="stroke:#000000;stroke-width:0.5;" x="84.7596542553" xlink:href="#m0fa555e06f" y="65.569787234"/>
     <use style="stroke:#000000;stroke-width:0.5;" x="87.4309308511" xlink:href="#m0fa555e06f" y="57.1404255319"/>
     <use style="stroke:#000000;stroke-width:0.5;" x="69.4294946809" xlink:href="#m0fa555e06f" y="80.2914893617"/>
     <use style="stroke:#000000;stroke-width:0.5;" x="92.6250797872" xlink:href="#m0fa555e06f" y="75.4238297872"/>
     <use style="stroke:#000000;stroke-width:0.5;" x="82.6671542553" xlink:href="#m0fa555e06f" y="58.3276595745"/>
     <use style="stroke:#000000;stroke-width:0.5;" x="85.3384308511" xlink:href="#m0fa555e06f" y="60.9395744681"/>
     <use style="stroke:#000000;stroke-width:0.5;" x="67.3369946809" xlink:href="#m0fa555e06f" y="80.1727659574"/>
     <use style="stroke:#000000;stroke-width:0.5;" x="90.5325797872" xlink:href="#m0fa555e06f" y="56.4280851064"/>
     <use style="stroke:#000000;stroke-width:0.5;" x="72.3975797872" xlink:href="#m0fa555e06f" y="70.0812765957"/>
     <use style="stroke:#000000;stroke-width:0.5;" x="54.396143617" xlink:href="#m0fa555e06f" y="93.8259574468"/>
     <use style="stroke:#000000;stroke-width:0.5;" x="77.5917287234" xlink:href="#m0fa555e06f" y="62.3642553191"/>
     <use style="stroke:#000000;stroke-width:0.5;" x="57.0674202128" xlink:href="#m0fa555e06f" y="79.1042553191"/>
     <use style="stroke:#000000;stroke-width:0.5;" x="80.2630053191" xlink:href="#m0fa555e06f" y="69.0127659574"/>
     <use style="stroke:#000000;stroke-width:0.5;" x="62.2615691489" xlink:href="#m0fa555e06f" y="32.9208510638"/>
     <use style="stroke:#000000;stroke-width:0.5;" x="70.3050797872" xlink:href="#m0fa555e06f" y="69.9625531915"/>
     <use style="stroke:#000000;stroke-width:0.5;" x="52.303643617" xlink:href="#m0fa555e06f" y="86.2276595745"/>
     <use style="stroke:#000000;stroke-width:0.5;" x="75.4992287234" xlink:href="#m0fa555e06f" y="66.1634042553"/>
     <use style="stroke:#000000;stroke-width:0.5;" x="54.9749202128" xlink:href="#m0fa555e06f" y="85.990212766"/>
     <use style="stroke:#000000;stroke-width:0.5;" x="78.1705053191" xlink:href="#m0fa555e06f" y="75.6612765957"/>
     <use style="stroke:#000000;stroke-width:0.5;" x="60.1690691489" xlink:href="#m0fa555e06f" y="84.9217021277"/>
     <use style="stroke:#000000;stroke-width:0.5;" x="42.0340691489" xlink:href="#m0fa555e06f" y="117.214468085"/>
     <use style="stroke:#000000;stroke-width:0.5;" x="65.2296542553" xlink:href="#m0fa555e06f" y="71.3872340426"/>
     <use style="stroke:#000000;stroke-width:0.5;" x="47.2282180851" xlink:href="#m0fa555e06f" y="110.92212766"/>
     <use style="stroke:#000000;stroke-width:0.5;" x="49.8994946809" xlink:href="#m0fa555e06f" y="104.273617021"/>
     <use style="stroke:#000000;stroke-width:0.5;" x="39.9415691489" xlink:href="#m0fa555e06f" y="99.8808510638"/>
     <use style="stroke:#000000;stroke-width:0.5;" x="63.1371542553" xlink:href="#m0fa555e06f" y="60.7021276596"/>
     <use style="stroke:#000000;stroke-width:0.5;" x="45.1357180851" xlink:href="#m0fa555e06f" y="109.616170213"/>
     <use style="stroke:#000000;stroke-width:0.5;" x="47.8069946809" xlink:href="#m0fa555e06f" y="99.5246808511"/>
     <use style="stroke:#000000;stroke-width:0.5;" x="34.866143617" xlink:href="#m0fa555e06f" y="110.92212766"/>
     <use style="stroke:#000000;stroke-width:0.5;" x="32.773643617" xlink:href="#m0fa555e06f" y="110.565957447"/>
    </g>
   </g>
   <g id="line2d_3">
    <path clip-path="url(#p5b377fbcc8)" d="M 32.773644 118.875032 
L 36.731744 112.393889 
L 40.756931 106.222529 
L 44.849204 100.349699 
L 49.008564 94.764176 
L 53.23501 89.454814 
L 57.595629 84.334416 
L 62.023335 79.478268 
L 66.518127 74.874742 
L 71.147092 70.45055 
L 75.91023 66.207196 
L 80.80754 62.145012 
L 85.839024 58.26327 
L 91.004681 54.560303 
L 96.30451 51.033614 
L 99.793005 48.851596 
L 99.793005 48.851596 
" style="fill:none;stroke:#ff0000;stroke-linecap:square;stroke-width:2.0;"/>
   </g>
   <g id="patch_3">
    <path d="M 18 121.251064 
L 18 26.27234 
" style="fill:none;stroke:#000000;stroke-linecap:square;stroke-linejoin:miter;"/>
   </g>
   <g id="patch_4">
    <path d="M 22.748936 126 
L 117.72766 126 
" style="fill:none;stroke:#000000;stroke-linecap:square;stroke-linejoin:miter;"/>
   </g>
   <g id="matplotlib.axis_1">
    <g id="xtick_1">
     <g id="line2d_4">
      <defs>
       <path d="M 0 0 
L 0 4 
" id="m511563fe90" style="stroke:#000000;stroke-width:0.5;"/>
      </defs>
      <g>
       <use style="stroke:#000000;stroke-width:0.5;" x="22.7489361702" xlink:href="#m511563fe90" y="126.0"/>
      </g>
     </g>
     <g id="text_1">
      <!-- 0.6 -->
      <defs>
       <path d="M 49.75 54.046875 
L 41.015625 53.375 
Q 39.84375 58.546875 37.703125 60.890625 
Q 34.125 64.65625 28.90625 64.65625 
Q 24.703125 64.65625 21.53125 62.3125 
Q 17.390625 59.28125 14.984375 53.46875 
Q 12.59375 47.65625 12.5 36.921875 
Q 15.671875 41.75 20.265625 44.09375 
Q 24.859375 46.4375 29.890625 46.4375 
Q 38.671875 46.4375 44.84375 39.96875 
Q 51.03125 33.5 51.03125 23.25 
Q 51.03125 16.5 48.125 10.71875 
Q 45.21875 4.9375 40.140625 1.859375 
Q 35.0625 -1.21875 28.609375 -1.21875 
Q 17.625 -1.21875 10.6875 6.859375 
Q 3.765625 14.9375 3.765625 33.5 
Q 3.765625 54.25 11.421875 63.671875 
Q 18.109375 71.875 29.4375 71.875 
Q 37.890625 71.875 43.28125 67.140625 
Q 48.6875 62.40625 49.75 54.046875 
M 13.875 23.1875 
Q 13.875 18.65625 15.796875 14.5 
Q 17.71875 10.359375 21.1875 8.171875 
Q 24.65625 6 28.46875 6 
Q 34.03125 6 38.03125 10.484375 
Q 42.046875 14.984375 42.046875 22.703125 
Q 42.046875 30.125 38.078125 34.390625 
Q 34.125 38.671875 28.125 38.671875 
Q 22.171875 38.671875 18.015625 34.390625 
Q 13.875 30.125 13.875 23.1875 
" id="ArialMT-36"/>
       <path d="M 9.078125 0 
L 9.078125 10.015625 
L 19.09375 10.015625 
L 19.09375 0 
z
" id="ArialMT-2e"/>
       <path d="M 4.15625 35.296875 
Q 4.15625 48 6.765625 55.734375 
Q 9.375 63.484375 14.515625 67.671875 
Q 19.671875 71.875 27.484375 71.875 
Q 33.25 71.875 37.59375 69.546875 
Q 41.9375 67.234375 44.765625 62.859375 
Q 47.609375 58.5 49.21875 52.21875 
Q 50.828125 45.953125 50.828125 35.296875 
Q 50.828125 22.703125 48.234375 14.96875 
Q 45.65625 7.234375 40.5 3 
Q 35.359375 -1.21875 27.484375 -1.21875 
Q 17.140625 -1.21875 11.234375 6.203125 
Q 4.15625 15.140625 4.15625 35.296875 
M 13.1875 35.296875 
Q 13.1875 17.671875 17.3125 11.828125 
Q 21.4375 6 27.484375 6 
Q 33.546875 6 37.671875 11.859375 
Q 41.796875 17.71875 41.796875 35.296875 
Q 41.796875 52.984375 37.671875 58.78125 
Q 33.546875 64.59375 27.390625 64.59375 
Q 21.34375 64.59375 17.71875 59.46875 
Q 13.1875 52.9375 13.1875 35.296875 
" id="ArialMT-30"/>
      </defs>
      <g transform="translate(15.7989361702 141.1578125)scale(0.1 -0.1)">
       <use xlink:href="#ArialMT-30"/>
       <use x="55.615234375" xlink:href="#ArialMT-2e"/>
       <use x="83.3984375" xlink:href="#ArialMT-36"/>
      </g>
     </g>
    </g>
    <g id="xtick_2">
     <g id="line2d_5">
      <g>
       <use style="stroke:#000000;stroke-width:0.5;" x="46.4936170213" xlink:href="#m511563fe90" y="126.0"/>
      </g>
     </g>
     <g id="text_2">
      <!-- 0.7 -->
      <defs>
       <path d="M 4.734375 62.203125 
L 4.734375 70.65625 
L 51.078125 70.65625 
L 51.078125 63.8125 
Q 44.234375 56.546875 37.515625 44.484375 
Q 30.8125 32.421875 27.15625 19.671875 
Q 24.515625 10.6875 23.78125 0 
L 14.75 0 
Q 14.890625 8.453125 18.0625 20.40625 
Q 21.234375 32.375 27.171875 43.484375 
Q 33.109375 54.59375 39.796875 62.203125 
z
" id="ArialMT-37"/>
      </defs>
      <g transform="translate(39.5436170213 141.1578125)scale(0.1 -0.1)">
       <use xlink:href="#ArialMT-30"/>
       <use x="55.615234375" xlink:href="#ArialMT-2e"/>
       <use x="83.3984375" xlink:href="#ArialMT-37"/>
      </g>
     </g>
    </g>
    <g id="xtick_3">
     <g id="line2d_6">
      <g>
       <use style="stroke:#000000;stroke-width:0.5;" x="70.2382978723" xlink:href="#m511563fe90" y="126.0"/>
      </g>
     </g>
     <g id="text_3">
      <!-- 0.8 -->
      <defs>
       <path d="M 17.671875 38.8125 
Q 12.203125 40.828125 9.5625 44.53125 
Q 6.9375 48.25 6.9375 53.421875 
Q 6.9375 61.234375 12.546875 66.546875 
Q 18.171875 71.875 27.484375 71.875 
Q 36.859375 71.875 42.578125 66.421875 
Q 48.296875 60.984375 48.296875 53.171875 
Q 48.296875 48.1875 45.671875 44.5 
Q 43.0625 40.828125 37.75 38.8125 
Q 44.34375 36.671875 47.78125 31.875 
Q 51.21875 27.09375 51.21875 20.453125 
Q 51.21875 11.28125 44.71875 5.03125 
Q 38.234375 -1.21875 27.640625 -1.21875 
Q 17.046875 -1.21875 10.546875 5.046875 
Q 4.046875 11.328125 4.046875 20.703125 
Q 4.046875 27.6875 7.59375 32.390625 
Q 11.140625 37.109375 17.671875 38.8125 
M 15.921875 53.71875 
Q 15.921875 48.640625 19.1875 45.40625 
Q 22.46875 42.1875 27.6875 42.1875 
Q 32.765625 42.1875 36.015625 45.375 
Q 39.265625 48.578125 39.265625 53.21875 
Q 39.265625 58.0625 35.90625 61.359375 
Q 32.5625 64.65625 27.59375 64.65625 
Q 22.5625 64.65625 19.234375 61.421875 
Q 15.921875 58.203125 15.921875 53.71875 
M 13.09375 20.65625 
Q 13.09375 16.890625 14.875 13.375 
Q 16.65625 9.859375 20.171875 7.921875 
Q 23.6875 6 27.734375 6 
Q 34.03125 6 38.125 10.046875 
Q 42.234375 14.109375 42.234375 20.359375 
Q 42.234375 26.703125 38.015625 30.859375 
Q 33.796875 35.015625 27.4375 35.015625 
Q 21.234375 35.015625 17.15625 30.90625 
Q 13.09375 26.8125 13.09375 20.65625 
" id="ArialMT-38"/>
      </defs>
      <g transform="translate(63.2882978723 141.1578125)scale(0.1 -0.1)">
       <use xlink:href="#ArialMT-30"/>
       <use x="55.615234375" xlink:href="#ArialMT-2e"/>
       <use x="83.3984375" xlink:href="#ArialMT-38"/>
      </g>
     </g>
    </g>
    <g id="xtick_4">
     <g id="line2d_7">
      <g>
       <use style="stroke:#000000;stroke-width:0.5;" x="93.9829787234" xlink:href="#m511563fe90" y="126.0"/>
      </g>
     </g>
     <g id="text_4">
      <!-- 0.9 -->
      <defs>
       <path d="M 5.46875 16.546875 
L 13.921875 17.328125 
Q 14.984375 11.375 18.015625 8.6875 
Q 21.046875 6 25.78125 6 
Q 29.828125 6 32.875 7.859375 
Q 35.9375 9.71875 37.890625 12.8125 
Q 39.84375 15.921875 41.15625 21.1875 
Q 42.484375 26.46875 42.484375 31.9375 
Q 42.484375 32.515625 42.4375 33.6875 
Q 39.796875 29.5 35.234375 26.875 
Q 30.671875 24.265625 25.34375 24.265625 
Q 16.453125 24.265625 10.296875 30.703125 
Q 4.15625 37.15625 4.15625 47.703125 
Q 4.15625 58.59375 10.578125 65.234375 
Q 17 71.875 26.65625 71.875 
Q 33.640625 71.875 39.421875 68.109375 
Q 45.21875 64.359375 48.21875 57.390625 
Q 51.21875 50.4375 51.21875 37.25 
Q 51.21875 23.53125 48.234375 15.40625 
Q 45.265625 7.28125 39.375 3.03125 
Q 33.5 -1.21875 25.59375 -1.21875 
Q 17.1875 -1.21875 11.859375 3.4375 
Q 6.546875 8.109375 5.46875 16.546875 
M 41.453125 48.140625 
Q 41.453125 55.71875 37.421875 60.15625 
Q 33.40625 64.59375 27.734375 64.59375 
Q 21.875 64.59375 17.53125 59.8125 
Q 13.1875 55.03125 13.1875 47.40625 
Q 13.1875 40.578125 17.3125 36.296875 
Q 21.4375 32.03125 27.484375 32.03125 
Q 33.59375 32.03125 37.515625 36.296875 
Q 41.453125 40.578125 41.453125 48.140625 
" id="ArialMT-39"/>
      </defs>
      <g transform="translate(87.0329787234 141.1578125)scale(0.1 -0.1)">
       <use xlink:href="#ArialMT-30"/>
       <use x="55.615234375" xlink:href="#ArialMT-2e"/>
       <use x="83.3984375" xlink:href="#ArialMT-39"/>
      </g>
     </g>
    </g>
    <g id="xtick_5">
     <g id="line2d_8">
      <g>
       <use style="stroke:#000000;stroke-width:0.5;" x="117.727659574" xlink:href="#m511563fe90" y="126.0"/>
      </g>
     </g>
     <g id="text_5">
      <!-- 1.0 -->
      <defs>
       <path d="M 37.25 0 
L 28.46875 0 
L 28.46875 56 
Q 25.296875 52.984375 20.140625 49.953125 
Q 14.984375 46.921875 10.890625 45.40625 
L 10.890625 53.90625 
Q 18.265625 57.375 23.78125 62.296875 
Q 29.296875 67.234375 31.59375 71.875 
L 37.25 71.875 
z
" id="ArialMT-31"/>
      </defs>
      <g transform="translate(110.777659574 141.1578125)scale(0.1 -0.1)">
       <use xlink:href="#ArialMT-31"/>
       <use x="55.615234375" xlink:href="#ArialMT-2e"/>
       <use x="83.3984375" xlink:href="#ArialMT-30"/>
      </g>
     </g>
    </g>
   </g>
   <g id="matplotlib.axis_2">
    <g id="ytick_1">
     <g id="line2d_9">
      <defs>
       <path d="M 0 0 
L -4 0 
" id="m5d8e22b22d" style="stroke:#000000;stroke-width:0.5;"/>
      </defs>
      <g>
       <use style="stroke:#000000;stroke-width:0.5;" x="18.0" xlink:href="#m5d8e22b22d" y="121.25106383"/>
      </g>
     </g>
     <g id="text_6">
      <!-- 0.6 -->
      <g transform="translate(-3.9 123.83622008)scale(0.1 -0.1)">
       <use xlink:href="#ArialMT-30"/>
       <use x="55.615234375" xlink:href="#ArialMT-2e"/>
       <use x="83.3984375" xlink:href="#ArialMT-36"/>
      </g>
     </g>
    </g>
    <g id="ytick_2">
     <g id="line2d_10">
      <g>
       <use style="stroke:#000000;stroke-width:0.5;" x="18.0" xlink:href="#m5d8e22b22d" y="97.5063829787"/>
      </g>
     </g>
     <g id="text_7">
      <!-- 0.7 -->
      <g transform="translate(-3.9 100.091539229)scale(0.1 -0.1)">
       <use xlink:href="#ArialMT-30"/>
       <use x="55.615234375" xlink:href="#ArialMT-2e"/>
       <use x="83.3984375" xlink:href="#ArialMT-37"/>
      </g>
     </g>
    </g>
    <g id="ytick_3">
     <g id="line2d_11">
      <g>
       <use style="stroke:#000000;stroke-width:0.5;" x="18.0" xlink:href="#m5d8e22b22d" y="73.7617021277"/>
      </g>
     </g>
     <g id="text_8">
      <!-- 0.8 -->
      <g transform="translate(-3.9 76.3468583777)scale(0.1 -0.1)">
       <use xlink:href="#ArialMT-30"/>
       <use x="55.615234375" xlink:href="#ArialMT-2e"/>
       <use x="83.3984375" xlink:href="#ArialMT-38"/>
      </g>
     </g>
    </g>
    <g id="ytick_4">
     <g id="line2d_12">
      <g>
       <use style="stroke:#000000;stroke-width:0.5;" x="18.0" xlink:href="#m5d8e22b22d" y="50.0170212766"/>
      </g>
     </g>
     <g id="text_9">
      <!-- 0.9 -->
      <g transform="translate(-3.9 52.6021775266)scale(0.1 -0.1)">
       <use xlink:href="#ArialMT-30"/>
       <use x="55.615234375" xlink:href="#ArialMT-2e"/>
       <use x="83.3984375" xlink:href="#ArialMT-39"/>
      </g>
     </g>
    </g>
    <g id="ytick_5">
     <g id="line2d_13">
      <g>
       <use style="stroke:#000000;stroke-width:0.5;" x="18.0" xlink:href="#m5d8e22b22d" y="26.2723404255"/>
      </g>
     </g>
     <g id="text_10">
      <!-- 1.0 -->
      <g transform="translate(-3.9 28.8574966755)scale(0.1 -0.1)">
       <use xlink:href="#ArialMT-31"/>
       <use x="55.615234375" xlink:href="#ArialMT-2e"/>
       <use x="83.3984375" xlink:href="#ArialMT-30"/>
      </g>
     </g>
    </g>
   </g>
  </g>
 </g>
 <defs>
  <clipPath id="p5b377fbcc8">
   <rect height="111.6" width="111.6" x="18.0" y="14.4"/>
  </clipPath>
 </defs>
</svg>
