<?xml version="1.0" encoding="utf-8" standalone="no"?>
<!DOCTYPE svg PUBLIC "-//W3C//DTD SVG 1.1//EN"
  "http://www.w3.org/Graphics/SVG/1.1/DTD/svg11.dtd">
<!-- Created with matplotlib (http://matplotlib.org/) -->
<svg height="144pt" version="1.1" viewBox="0 0 144 144" width="144pt" xmlns="http://www.w3.org/2000/svg" xmlns:xlink="http://www.w3.org/1999/xlink">
 <defs>
  <style type="text/css">
*{stroke-linecap:butt;stroke-linejoin:round;}
  </style>
 </defs>
 <g id="figure_1">
  <g id="patch_1">
   <path d="M 0 144 
L 144 144 
L 144 0 
L 0 0 
z
" style="fill:#ffffff;"/>
  </g>
  <g id="axes_1">
   <g id="patch_2">
    <path d="M 18 126 
L 129.6 126 
L 129.6 17.28 
L 18 17.28 
z
" style="fill:#ffffff;"/>
   </g>
   <g id="matplotlib.axis_1">
    <g id="xtick_1">
     <g id="line2d_1">
      <defs>
       <path d="M 0 0 
L 0 3.5 
" id="m7741792578" style="stroke:#000000;"/>
      </defs>
      <g>
       <use style="stroke:#000000;" x="30.876923" xlink:href="#m7741792578" y="126"/>
      </g>
     </g>
     <g id="text_1">
      <!-- 0.0 -->
      <defs>
       <path d="M 4.15625 35.296875 
Q 4.15625 48 6.765625 55.734375 
Q 9.375 63.484375 14.515625 67.671875 
Q 19.671875 71.875 27.484375 71.875 
Q 33.25 71.875 37.59375 69.546875 
Q 41.9375 67.234375 44.765625 62.859375 
Q 47.609375 58.5 49.21875 52.21875 
Q 50.828125 45.953125 50.828125 35.296875 
Q 50.828125 22.703125 48.234375 14.96875 
Q 45.65625 7.234375 40.5 3 
Q 35.359375 -1.21875 27.484375 -1.21875 
Q 17.140625 -1.21875 11.234375 6.203125 
Q 4.15625 15.140625 4.15625 35.296875 
M 13.1875 35.296875 
Q 13.1875 17.671875 17.3125 11.828125 
Q 21.4375 6 27.484375 6 
Q 33.546875 6 37.671875 11.859375 
Q 41.796875 17.71875 41.796875 35.296875 
Q 41.796875 52.984375 37.671875 58.78125 
Q 33.546875 64.59375 27.390625 64.59375 
Q 21.34375 64.59375 17.71875 59.46875 
Q 13.1875 52.9375 13.1875 35.296875 
" id="ArialMT-30"/>
       <path d="M 9.078125 0 
L 9.078125 10.015625 
L 19.09375 10.015625 
L 19.09375 0 
z
" id="ArialMT-2e"/>
      </defs>
      <g transform="translate(23.926923 140.157813)scale(0.1 -0.1)">
       <use xlink:href="#ArialMT-30"/>
       <use x="55.615234" xlink:href="#ArialMT-2e"/>
       <use x="83.398438" xlink:href="#ArialMT-30"/>
      </g>
     </g>
    </g>
    <g id="xtick_2">
     <g id="line2d_2">
      <g>
       <use style="stroke:#000000;" x="73.8" xlink:href="#m7741792578" y="126"/>
      </g>
     </g>
     <g id="text_2">
      <!-- 0.5 -->
      <defs>
       <path d="M 4.15625 18.75 
L 13.375 19.53125 
Q 14.40625 12.796875 18.140625 9.390625 
Q 21.875 6 27.15625 6 
Q 33.5 6 37.890625 10.78125 
Q 42.28125 15.578125 42.28125 23.484375 
Q 42.28125 31 38.0625 35.34375 
Q 33.84375 39.703125 27 39.703125 
Q 22.75 39.703125 19.328125 37.765625 
Q 15.921875 35.84375 13.96875 32.765625 
L 5.71875 33.84375 
L 12.640625 70.609375 
L 48.25 70.609375 
L 48.25 62.203125 
L 19.671875 62.203125 
L 15.828125 42.96875 
Q 22.265625 47.46875 29.34375 47.46875 
Q 38.71875 47.46875 45.15625 40.96875 
Q 51.609375 34.46875 51.609375 24.265625 
Q 51.609375 14.546875 45.953125 7.46875 
Q 39.0625 -1.21875 27.15625 -1.21875 
Q 17.390625 -1.21875 11.203125 4.25 
Q 5.03125 9.71875 4.15625 18.75 
" id="ArialMT-35"/>
      </defs>
      <g transform="translate(66.85 140.157813)scale(0.1 -0.1)">
       <use xlink:href="#ArialMT-30"/>
       <use x="55.615234" xlink:href="#ArialMT-2e"/>
       <use x="83.398438" xlink:href="#ArialMT-35"/>
      </g>
     </g>
    </g>
    <g id="xtick_3">
     <g id="line2d_3">
      <g>
       <use style="stroke:#000000;" x="116.723077" xlink:href="#m7741792578" y="126"/>
      </g>
     </g>
     <g id="text_3">
      <!-- 1.0 -->
      <defs>
       <path d="M 37.25 0 
L 28.46875 0 
L 28.46875 56 
Q 25.296875 52.984375 20.140625 49.953125 
Q 14.984375 46.921875 10.890625 45.40625 
L 10.890625 53.90625 
Q 18.265625 57.375 23.78125 62.296875 
Q 29.296875 67.234375 31.59375 71.875 
L 37.25 71.875 
z
" id="ArialMT-31"/>
      </defs>
      <g transform="translate(109.773077 140.157813)scale(0.1 -0.1)">
       <use xlink:href="#ArialMT-31"/>
       <use x="55.615234" xlink:href="#ArialMT-2e"/>
       <use x="83.398438" xlink:href="#ArialMT-30"/>
      </g>
     </g>
    </g>
   </g>
   <g id="matplotlib.axis_2">
    <g id="ytick_1">
     <g id="line2d_4">
      <defs>
       <path d="M 0 0 
L -3.5 0 
" id="m688c9b8050" style="stroke:#000000;"/>
      </defs>
      <g>
       <use style="stroke:#000000;" x="18" xlink:href="#m688c9b8050" y="113.455385"/>
      </g>
     </g>
     <g id="text_4">
      <!-- 0.0 -->
      <g transform="translate(-2.9 117.034291)scale(0.1 -0.1)">
       <use xlink:href="#ArialMT-30"/>
       <use x="55.615234" xlink:href="#ArialMT-2e"/>
       <use x="83.398438" xlink:href="#ArialMT-30"/>
      </g>
     </g>
    </g>
    <g id="ytick_2">
     <g id="line2d_5">
      <g>
       <use style="stroke:#000000;" x="18" xlink:href="#m688c9b8050" y="71.64"/>
      </g>
     </g>
     <g id="text_5">
      <!-- 0.5 -->
      <g transform="translate(-2.9 75.218906)scale(0.1 -0.1)">
       <use xlink:href="#ArialMT-30"/>
       <use x="55.615234" xlink:href="#ArialMT-2e"/>
       <use x="83.398438" xlink:href="#ArialMT-35"/>
      </g>
     </g>
    </g>
    <g id="ytick_3">
     <g id="line2d_6">
      <g>
       <use style="stroke:#000000;" x="18" xlink:href="#m688c9b8050" y="29.824615"/>
      </g>
     </g>
     <g id="text_6">
      <!-- 1.0 -->
      <g transform="translate(-2.9 33.403522)scale(0.1 -0.1)">
       <use xlink:href="#ArialMT-31"/>
       <use x="55.615234" xlink:href="#ArialMT-2e"/>
       <use x="83.398438" xlink:href="#ArialMT-30"/>
      </g>
     </g>
    </g>
   </g>
   <g id="line2d_7">
    <path clip-path="url(#ped9ef62b46)" d="M 34.338206 104.094371 
L 35.166347 102.058154 
L 35.994489 100.092139 
L 36.82263 98.192757 
L 37.650771 96.356677 
L 38.478913 94.580786 
L 39.307054 92.862173 
L 40.135195 91.19811 
L 40.963336 89.58604 
L 41.791478 88.023566 
L 42.619619 86.508431 
L 43.44776 85.038517 
L 44.275902 83.61183 
L 45.104043 82.22649 
L 45.932184 80.880725 
L 46.760326 79.572864 
L 47.588467 78.301327 
L 48.416608 77.064622 
L 49.244749 75.861336 
L 50.072891 74.690134 
L 50.901032 73.549749 
L 51.729173 72.438981 
L 52.557315 71.356689 
L 53.385456 70.301794 
L 54.213597 69.273269 
L 55.041738 68.270135 
L 55.86988 67.291465 
L 56.698021 66.336375 
L 57.526162 65.404022 
L 58.354304 64.493605 
L 59.182445 63.604357 
L 60.010586 62.735549 
L 60.838727 61.886485 
L 61.666869 61.056499 
L 62.49501 60.244954 
L 63.323151 59.451244 
L 64.151293 58.674787 
L 64.979434 57.915025 
L 65.807575 57.171427 
L 66.635717 56.443482 
L 67.463858 55.730701 
L 68.291999 55.032615 
L 69.12014 54.348774 
L 69.948282 53.678747 
L 70.776423 53.022119 
L 71.604564 52.378492 
L 72.432706 51.747484 
L 73.260847 51.128727 
L 74.088988 50.521868 
L 74.917129 49.926568 
L 75.745271 49.342498 
L 76.573412 48.769345 
L 77.401553 48.206804 
L 78.229695 47.654584 
L 79.057836 47.112404 
L 79.885977 46.579992 
L 80.714119 46.057087 
L 81.54226 45.543435 
L 82.370401 45.038794 
L 83.198542 44.542929 
L 84.026684 44.055612 
L 84.854825 43.576625 
L 85.682966 43.105756 
L 86.511108 42.642799 
L 87.339249 42.187558 
L 88.16739 41.739841 
L 88.995531 41.299463 
L 89.823673 40.866245 
L 90.651814 40.440014 
L 91.479955 40.020602 
L 92.308097 39.607847 
L 93.136238 39.201591 
L 93.964379 38.801683 
L 94.79252 38.407974 
L 95.620662 38.020322 
L 96.448803 37.638587 
L 97.276944 37.262636 
L 98.105086 36.892339 
L 98.933227 36.527567 
L 99.761368 36.168199 
L 100.58951 35.814116 
L 101.417651 35.465201 
L 102.245792 35.121342 
L 103.073933 34.782431 
L 103.902075 34.448361 
L 104.730216 34.11903 
L 105.558357 33.794336 
L 106.386499 33.474183 
L 107.21464 33.158477 
L 108.042781 32.847125 
L 108.870922 32.540037 
L 109.699064 32.237127 
L 110.527205 31.938311 
L 111.355346 31.643505 
L 112.183488 31.35263 
L 113.011629 31.065607 
L 113.83977 30.78236 
L 114.667912 30.502816 
L 115.496053 30.226902 
L 116.324194 29.954548 
" style="fill:none;stroke:#000000;stroke-linecap:square;stroke-width:2;"/>
   </g>
   <g id="patch_3">
    <path d="M 18 113.455385 
L 18 29.824615 
" style="fill:none;stroke:#000000;stroke-linecap:square;stroke-linejoin:miter;stroke-width:0.8;"/>
   </g>
   <g id="patch_4">
    <path d="M 30.876923 126 
L 116.723077 126 
" style="fill:none;stroke:#000000;stroke-linecap:square;stroke-linejoin:miter;stroke-width:0.8;"/>
   </g>
  </g>
 </g>
 <defs>
  <clipPath id="ped9ef62b46">
   <rect height="108.72" width="111.6" x="18" y="17.28"/>
  </clipPath>
 </defs>
</svg>
